<?xml version="1.0" encoding="UTF-8"?>
<svg id="Layer_1" data-name="Layer 1" xmlns="http://www.w3.org/2000/svg" xmlns:xlink="http://www.w3.org/1999/xlink" viewBox="0 0 2231.42 488.61">
  <defs>
    <style>
      .cls-1 {
        mask: url(#mask);
      }

      .cls-2 {
        fill: #fff;
      }

      .cls-3 {
        opacity: .84;
      }
    </style>
    <mask id="mask" x="611.76" y="117.3" width="1620" height="302" maskUnits="userSpaceOnUse">
      <g id="path-2-outside-1_1_4" data-name="path-2-outside-1 1 4">
        <rect class="cls-2" x="611.76" y="117.3" width="1620" height="302"/>
        <path d="M708.34,375.3l-94.18-251.6h58.82l47.6,127.16c5.78,15.64,10.54,31.28,15.98,53.04,6.46-24.14,11.22-38.08,16.66-53.04l46.92-127.16h57.46l-92.48,251.6h-56.78ZM929.17,379.72c-51.34,0-88.06-37.4-88.06-89.76s35.7-90.1,87.04-90.1,86.7,35.02,86.7,90.44v13.26l-123.42.68c3.06,22.44,15.64,32.98,38.76,32.98,19.72,0,33.66-7.14,37.4-19.38h47.94c-6.12,37.74-39.78,61.88-86.36,61.88ZM928.49,242.36c-20.74,0-32.3,9.18-36.38,29.58h70.72c0-18.02-13.26-29.58-34.34-29.58ZM1080.4,375.3h-59.5l57.12-82.28-57.12-87.72h60.52l31.28,51.68,29.24-51.68h58.48l-56.1,86.7,54.06,83.3h-60.18l-29.24-48.96-28.56,48.96ZM1274.83,379.72c-36.04,0-58.48-21.08-58.48-54.4,0-31.28,22.1-50.66,62.9-53.72l47.6-3.74v-2.72c0-16.66-10.2-25.5-28.9-25.5-22.1,0-34,8.5-34,23.8h-43.52c0-38.42,31.62-63.58,80.24-63.58s77.18,27.54,77.18,76.16v99.28h-46.24l-3.4-22.44c-5.44,15.64-27.88,26.86-53.38,26.86ZM1293.19,340.96c20.06,0,34-9.86,34-29.24v-9.18l-26.52,2.38c-22.78,2.04-30.94,7.14-30.94,18.02,0,12.24,7.48,18.02,23.46,18.02ZM1467.77,375.3h-52.36V118.94h52.36v256.36ZM1558.39,379.72c-36.04,0-58.48-21.08-58.48-54.4,0-31.28,22.1-50.66,62.9-53.72l47.6-3.74v-2.72c0-16.66-10.2-25.5-28.9-25.5-22.1,0-34,8.5-34,23.8h-43.52c0-38.42,31.62-63.58,80.24-63.58s77.18,27.54,77.18,76.16v99.28h-46.24l-3.4-22.44c-5.44,15.64-27.88,26.86-53.38,26.86ZM1576.75,340.96c20.06,0,34-9.86,34-29.24v-9.18l-26.52,2.38c-22.78,2.04-30.94,7.14-30.94,18.02,0,12.24,7.48,18.02,23.46,18.02ZM1748.26,375.3h-49.3V118.94h52.36v106.08c10.2-15.3,32.64-25.5,57.12-25.5,47.6,0,77.86,37.06,77.86,92.48s-33.66,87.72-81.94,87.72c-23.8,0-44.2-10.54-53.38-26.18l-2.72,21.76ZM1751.66,289.28c0,25.5,17,42.5,41.48,42.5s40.46-17.34,40.46-42.5-15.64-42.5-40.46-42.5-41.48,17-41.48,42.5ZM1904.2,321.58h49.64c.68,11.9,9.52,19.04,25.5,19.04s23.8-5.78,23.8-14.62c0-5.1-2.72-10.54-15.3-13.26l-31.28-6.8c-31.28-6.8-46.58-20.4-46.58-50.32,0-35.36,30.26-55.76,71.06-55.76s66.98,23.12,66.98,57.46h-49.64c0-11.56-7.14-19.38-19.72-19.38-11.9,0-19.38,6.12-19.38,15.3,0,7.82,6.46,12.24,18.36,14.96l31.62,6.8c27.88,6.12,43.18,19.04,43.18,46.24,0,36.38-30.94,58.48-75.14,58.48s-73.1-23.8-73.1-58.14ZM2080.48,417.8v-37.06h149.94v37.06h-149.94Z"/>
      </g>
    </mask>
  </defs>
  <g class="cls-3">
    <path d="M0,61.08C0,27.34,27.35,0,61.08,0h122.15c33.73,0,61.08,27.34,61.08,61.08v119.94c0,.73,0,1.47,0,2.21,0,33.68,27.27,61,60.93,61.08h122.29c33.73,0,61.08,27.35,61.08,61.08v122.15c0,33.73-27.35,61.08-61.08,61.08h-122.15c-33.73,0-61.08-27.35-61.08-61.08v-122.15c0-.17,0-.34,0-.51-.27-33.5-27.51-60.57-61.07-60.57H61.08C27.35,244.3,0,216.96,0,183.23V61.08h0Z"/>
  </g>
  <g class="cls-3">
    <path d="M708.34,375.3l-94.18-251.6h58.82l47.6,127.16c5.78,15.64,10.54,31.28,15.98,53.04,6.46-24.14,11.22-38.08,16.66-53.04l46.92-127.16h57.46l-92.48,251.6h-56.78ZM929.17,379.72c-51.34,0-88.06-37.4-88.06-89.76s35.7-90.1,87.04-90.1,86.7,35.02,86.7,90.44v13.26l-123.42.68c3.06,22.44,15.64,32.98,38.76,32.98,19.72,0,33.66-7.14,37.4-19.38h47.94c-6.12,37.74-39.78,61.88-86.36,61.88ZM928.49,242.36c-20.74,0-32.3,9.18-36.38,29.58h70.72c0-18.02-13.26-29.58-34.34-29.58ZM1080.4,375.3h-59.5l57.12-82.28-57.12-87.72h60.52l31.28,51.68,29.24-51.68h58.48l-56.1,86.7,54.06,83.3h-60.18l-29.24-48.96-28.56,48.96ZM1274.83,379.72c-36.04,0-58.48-21.08-58.48-54.4,0-31.28,22.1-50.66,62.9-53.72l47.6-3.74v-2.72c0-16.66-10.2-25.5-28.9-25.5-22.1,0-34,8.5-34,23.8h-43.52c0-38.42,31.62-63.58,80.24-63.58s77.18,27.54,77.18,76.16v99.28h-46.24l-3.4-22.44c-5.44,15.64-27.88,26.86-53.38,26.86ZM1293.19,340.96c20.06,0,34-9.86,34-29.24v-9.18l-26.52,2.38c-22.78,2.04-30.94,7.14-30.94,18.02,0,12.24,7.48,18.02,23.46,18.02ZM1467.77,375.3h-52.36V118.94h52.36v256.36ZM1558.39,379.72c-36.04,0-58.48-21.08-58.48-54.4,0-31.28,22.1-50.66,62.9-53.72l47.6-3.74v-2.72c0-16.66-10.2-25.5-28.9-25.5-22.1,0-34,8.5-34,23.8h-43.52c0-38.42,31.62-63.58,80.24-63.58s77.18,27.54,77.18,76.16v99.28h-46.24l-3.4-22.44c-5.44,15.64-27.88,26.86-53.38,26.86ZM1576.75,340.96c20.06,0,34-9.86,34-29.24v-9.18l-26.52,2.38c-22.78,2.04-30.94,7.14-30.94,18.02,0,12.24,7.48,18.02,23.46,18.02ZM1748.26,375.3h-49.3V118.94h52.36v106.08c10.2-15.3,32.64-25.5,57.12-25.5,47.6,0,77.86,37.06,77.86,92.48s-33.66,87.72-81.94,87.72c-23.8,0-44.2-10.54-53.38-26.18l-2.72,21.76ZM1751.66,289.28c0,25.5,17,42.5,41.48,42.5s40.46-17.34,40.46-42.5-15.64-42.5-40.46-42.5-41.48,17-41.48,42.5ZM1904.2,321.58h49.64c.68,11.9,9.52,19.04,25.5,19.04s23.8-5.78,23.8-14.62c0-5.1-2.72-10.54-15.3-13.26l-31.28-6.8c-31.28-6.8-46.58-20.4-46.58-50.32,0-35.36,30.26-55.76,71.06-55.76s66.98,23.12,66.98,57.46h-49.64c0-11.56-7.14-19.38-19.72-19.38-11.9,0-19.38,6.12-19.38,15.3,0,7.82,6.46,12.24,18.36,14.96l31.62,6.8c27.88,6.12,43.18,19.04,43.18,46.24,0,36.38-30.94,58.48-75.14,58.48s-73.1-23.8-73.1-58.14ZM2080.48,417.8v-37.06h149.94v37.06h-149.94Z"/>
    <g class="cls-1">
      <path d="M708.34,375.3l-.94.35.24.65h.69v-1ZM614.16,123.7v-1h-1.44l.51,1.35.94-.35ZM672.98,123.7l.94-.35-.24-.65h-.69v1ZM720.58,250.86l.94-.35h0s-.94.35-.94.35ZM736.56,303.9l-.97.24.94,3.75,1-3.73-.97-.26ZM753.22,250.86l-.94-.35h0s.94.35.94.35ZM800.14,123.7v-1h-.7l-.24.65.94.35ZM857.6,123.7l.94.34.49-1.34h-1.43v1ZM765.12,375.3v1h.7l.24-.65-.94-.35ZM708.34,375.3l.94-.35-94.18-251.6-.94.35-.94.35,94.18,251.6.94-.35ZM614.16,123.7v1h58.82v-2h-58.82v1ZM672.98,123.7l-.94.35,47.6,127.16.94-.35.94-.35-47.6-127.16-.94.35ZM720.58,250.86l-.94.35c5.77,15.6,10.52,31.2,15.95,52.94l.97-.24.97-.24c-5.45-21.79-10.22-37.46-16.01-53.14l-.94.35ZM736.56,303.9l.97.26c6.45-24.11,11.2-38.02,16.63-52.96l-.94-.34-.94-.34c-5.45,14.98-10.22,28.95-16.69,53.12l.97.26ZM753.22,250.86l.94.35,46.92-127.16-.94-.35-.94-.35-46.92,127.16.94.35ZM800.14,123.7v1h57.46v-2h-57.46v1ZM857.6,123.7l-.94-.35-92.48,251.6.94.35.94.35,92.48-251.6-.94-.34ZM765.12,375.3v-1h-56.78v2h56.78v-1ZM1014.85,303.56v1h1v-1h-1ZM891.43,304.24v-1s-1.15,0-1.15,0l.15,1.13.99-.13ZM967.59,317.84v-1h-.74l-.22.71.96.29ZM1015.53,317.84l.99.16.18-1.16h-1.17v1ZM892.11,271.94l-.98-.2-.24,1.2h1.22v-1ZM962.83,271.94v1h1v-1h-1ZM929.17,379.72v-1c-50.77,0-87.06-36.93-87.06-88.76h-2c0,52.89,37.15,90.76,89.06,90.76v-1ZM841.11,289.96h1c0-26.29,8.84-48.56,23.99-64.25,15.14-15.68,36.63-24.85,62.05-24.85v-2c-25.92,0-47.95,9.36-63.49,25.46-15.54,16.1-24.55,38.89-24.55,65.64h1ZM928.15,199.86v1c26.46,0,47.86,8.67,62.65,24.13,14.79,15.46,23.06,37.8,23.06,65.31h2c0-27.91-8.39-50.79-23.61-66.69-15.22-15.91-37.17-24.75-64.09-24.75v1ZM1014.85,290.3h-1v13.26h2v-13.26h-1ZM1014.85,303.56v-1s-123.43.68-123.43.68v1s.01,1,.01,1l123.42-.68v-1ZM891.43,304.24l-.99.13c1.55,11.38,5.54,19.88,12.2,25.53,6.66,5.64,15.85,8.31,27.55,8.31v-2c-11.42,0-20.08-2.6-26.26-7.84-6.17-5.23-10.01-13.21-11.51-24.28l-.99.14ZM930.19,337.22v1c19.87,0,34.42-7.2,38.36-20.09l-.96-.29-.96-.29c-3.54,11.59-16.87,18.67-36.44,18.67v1ZM967.59,317.84v1h47.94v-2h-47.94v1ZM1015.53,317.84l-.99-.16c-6.02,37.12-39.13,61.04-85.37,61.04v2c46.92,0,81.13-24.36,87.35-62.72l-.99-.16ZM928.49,242.36v-1c-10.51,0-18.84,2.33-25.07,7.36-6.23,5.04-10.23,12.68-12.29,23.02l.98.2.98.2c2.01-10.05,5.84-17.21,11.59-21.86,5.76-4.65,13.58-6.92,23.81-6.92v-1ZM892.11,271.94v1h70.72v-2h-70.72v1ZM962.83,271.94h1c0-9.27-3.42-16.95-9.61-22.3-6.17-5.34-15.01-8.28-25.73-8.28v2c10.36,0,18.7,2.84,24.42,7.79,5.71,4.94,8.92,12.04,8.92,20.79h1ZM1080.4,375.3v1h.58l.29-.5-.87-.5ZM1020.9,375.3l-.82-.57-1.09,1.57h1.91v-1ZM1078.02,293.02l.82.57.39-.55-.37-.56-.84.55ZM1020.9,205.3v-1h-1.84l1,1.55.84-.55ZM1081.42,205.3l.86-.52-.29-.48h-.57v1ZM1112.7,256.98l-.85.52.88,1.46.84-1.49-.87-.49ZM1141.94,205.3v-1h-.58l-.29.51.87.49ZM1200.42,205.3l.84.54,1-1.54h-1.84v1ZM1144.32,292l-.84-.54-.35.54.35.54.84-.54ZM1198.38,375.3v1h1.84l-1-1.54-.84.54ZM1138.2,375.3l-.86.51.29.49h.57v-1ZM1108.96,326.34l.86-.51-.87-1.45-.85,1.46.86.5ZM1080.4,375.3v-1h-59.5v2h59.5v-1ZM1020.9,375.3l.82.57,57.12-82.28-.82-.57-.82-.57-57.12,82.28.82.57ZM1078.02,293.02l.84-.55-57.12-87.72-.84.55-.84.55,57.12,87.72.84-.55ZM1020.9,205.3v1h60.52v-2h-60.52v1ZM1081.42,205.3l-.85.52,31.28,51.68.85-.52.86-.52-31.28-51.68-.86.52ZM1112.7,256.98l.87.49,29.24-51.68-.87-.49-.87-.49-29.24,51.68.87.49ZM1141.94,205.3v1h58.48v-2h-58.48v1ZM1200.42,205.3l-.84-.54-56.1,86.7.84.54.84.54,56.1-86.7-.84-.54ZM1144.32,292l-.84.54,54.06,83.3.84-.54.84-.54-54.06-83.3-.84.54ZM1198.38,375.3v-1h-60.18v2h60.18v-1ZM1138.2,375.3l.86-.51-29.24-48.96-.86.51-.86.51,29.24,48.96.86-.51ZM1108.96,326.34l-.86-.5-28.56,48.96.86.5.87.5,28.56-48.96-.87-.5ZM1279.25,271.6l.08,1h0l-.08-1ZM1326.85,267.86l.08,1,.92-.07v-.92h-1ZM1263.95,263.44v1h1v-1h-1ZM1220.43,263.44h-1v1h1v-1ZM1377.85,375.3v1h1v-1h-1ZM1331.61,375.3l-.99.15.13.85h.86v-1ZM1328.21,352.86l.99-.15-1.93-.18.94.33ZM1327.19,302.54h1v-1.09l-1.09.1.09,1ZM1300.67,304.92l.09,1h0l-.09-1ZM1274.83,379.72v-1c-17.83,0-32.18-5.21-42.07-14.44-9.88-9.22-15.41-22.54-15.41-38.96h-2c0,16.89,5.7,30.77,16.04,40.43,10.34,9.65,25.23,14.97,43.44,14.97v-1ZM1216.35,325.32h1c0-15.38,5.42-27.76,15.8-36.68,10.41-8.95,25.91-14.52,46.18-16.04l-.08-1-.07-1c-20.53,1.54-36.49,7.19-47.33,16.52-10.87,9.35-16.5,22.3-16.5,38.2h1ZM1279.25,271.6l.08,1,47.6-3.74-.08-1-.08-1-47.6,3.74.08,1ZM1326.85,267.86h1v-2.72h-2v2.72h1ZM1326.85,265.14h1c0-8.54-2.62-15.22-7.78-19.75-5.13-4.51-12.63-6.75-22.12-6.75v2c9.21,0,16.16,2.18,20.8,6.25,4.62,4.06,7.1,10.13,7.1,18.25h1ZM1297.95,239.64v-1c-11.15,0-19.89,2.14-25.86,6.35-6.03,4.24-9.14,10.51-9.14,18.45h2c0-7.35,2.84-12.99,8.29-16.82,5.5-3.87,13.77-5.98,24.71-5.98v-1ZM1263.95,263.44v-1h-43.52v2h43.52v-1ZM1220.43,263.44h1c0-18.91,7.77-34.51,21.51-45.41,13.76-10.92,33.58-17.17,57.73-17.17v-2c-24.47,0-44.77,6.33-58.97,17.6-14.23,11.28-22.27,27.47-22.27,46.98h1ZM1300.67,199.86v1c24.47,0,43.48,6.83,56.38,19.56,12.89,12.73,19.8,31.48,19.8,55.6h2c0-24.5-7.03-43.83-20.4-57.02-13.37-13.2-32.95-20.14-57.78-20.14v1ZM1377.85,276.02h-1v99.28h2v-99.28h-1ZM1377.85,375.3v-1h-46.24v2h46.24v-1ZM1331.61,375.3l.99-.15-3.4-22.44-.99.15-.99.15,3.4,22.44.99-.15ZM1328.21,352.86l-.94-.33c-2.61,7.49-9.34,14.04-18.67,18.73-9.33,4.68-21.16,7.46-33.77,7.46v2c12.89,0,25.03-2.83,34.66-7.67,9.62-4.83,16.83-11.71,19.67-19.86l-.95-.33ZM1293.19,340.96v1c10.18,0,18.93-2.5,25.16-7.58,6.25-5.1,9.84-12.71,9.84-22.66h-2c0,9.43-3.38,16.44-9.11,21.11-5.76,4.7-14.01,7.13-23.89,7.13v1ZM1327.19,311.72h1v-9.18h-2v9.18h1ZM1327.19,302.54l-.09-1-26.52,2.38.09,1,.09,1,26.52-2.38-.09-1ZM1300.67,304.92l-.09-1c-11.41,1.02-19.34,2.82-24.43,5.83-2.57,1.52-4.44,3.36-5.66,5.59-1.22,2.22-1.76,4.75-1.76,7.6h2c0-2.59.49-4.78,1.51-6.64,1.02-1.86,2.61-3.46,4.93-4.83,4.68-2.77,12.22-4.54,23.59-5.56l-.09-1ZM1269.73,322.94h-1c0,6.34,1.95,11.18,6.13,14.39,4.12,3.17,10.25,4.63,18.33,4.63v-2c-7.9,0-13.5-1.43-17.11-4.21-3.56-2.73-5.35-6.9-5.35-12.81h-1ZM1467.77,375.3v1h1v-1h-1ZM1415.41,375.3h-1v1h1v-1ZM1415.41,118.94v-1h-1v1h1ZM1467.77,118.94h1v-1h-1v1ZM1467.77,375.3v-1h-52.36v2h52.36v-1ZM1415.41,375.3h1V118.94h-2v256.36h1ZM1415.41,118.94v1h52.36v-2h-52.36v1ZM1467.77,118.94h-1v256.36h2V118.94h-1ZM1562.81,271.6l.07,1h0l-.07-1ZM1610.41,267.86l.07,1,.93-.07v-.92h-1ZM1547.51,263.44v1h1v-1h-1ZM1503.99,263.44h-1v1h1v-1ZM1661.41,375.3v1h1v-1h-1ZM1615.17,375.3l-.99.15.13.85h.86v-1ZM1611.77,352.86l.99-.15-1.94-.18.95.33ZM1610.75,302.54h1v-1.09l-1.09.1.09,1ZM1584.23,304.92l.09,1h0l-.09-1ZM1558.39,379.72v-1c-17.83,0-32.19-5.21-42.08-14.44-9.88-9.22-15.4-22.54-15.4-38.96h-2c0,16.89,5.69,30.77,16.04,40.43,10.34,9.65,25.22,14.97,43.44,14.97v-1ZM1499.91,325.32h1c0-15.38,5.42-27.76,15.8-36.68,10.41-8.95,25.9-14.52,46.17-16.04l-.07-1-.08-1c-20.53,1.54-36.48,7.19-47.33,16.52-10.87,9.35-16.49,22.3-16.49,38.2h1ZM1562.81,271.6l.07,1,47.6-3.74-.07-1-.08-1-47.6,3.74.08,1ZM1610.41,267.86h1v-2.72h-2v2.72h1ZM1610.41,265.14h1c0-8.54-2.63-15.22-7.78-19.75-5.14-4.51-12.63-6.75-22.12-6.75v2c9.21,0,16.16,2.18,20.8,6.25,4.62,4.06,7.1,10.13,7.1,18.25h1ZM1581.51,239.64v-1c-11.16,0-19.89,2.14-25.87,6.35-6.02,4.24-9.13,10.51-9.13,18.45h2c0-7.35,2.84-12.99,8.28-16.82,5.51-3.87,13.77-5.98,24.72-5.98v-1ZM1547.51,263.44v-1h-43.52v2h43.52v-1ZM1503.99,263.44h1c0-18.91,7.77-34.51,21.51-45.41,13.76-10.92,33.58-17.17,57.73-17.17v-2c-24.48,0-44.77,6.33-58.98,17.6-14.22,11.28-22.26,27.47-22.26,46.98h1ZM1584.23,199.86v1c24.46,0,43.48,6.83,56.37,19.56,12.89,12.73,19.81,31.48,19.81,55.6h2c0-24.5-7.03-43.83-20.4-57.02-13.37-13.2-32.95-20.14-57.78-20.14v1ZM1661.41,276.02h-1v99.28h2v-99.28h-1ZM1661.41,375.3v-1h-46.24v2h46.24v-1ZM1615.17,375.3l.99-.15-3.4-22.44-.99.15-.99.15,3.4,22.44.99-.15ZM1611.77,352.86l-.95-.33c-2.6,7.49-9.33,14.04-18.67,18.73-9.32,4.68-21.15,7.46-33.76,7.46v2c12.89,0,25.03-2.83,34.66-7.67,9.61-4.83,16.83-11.71,19.66-19.86l-.94-.33ZM1576.75,340.96v1c10.18,0,18.93-2.5,25.15-7.58,6.25-5.1,9.85-12.71,9.85-22.66h-2c0,9.43-3.38,16.44-9.11,21.11-5.76,4.7-14.01,7.13-23.89,7.13v1ZM1610.75,311.72h1v-9.18h-2v9.18h1ZM1610.75,302.54l-.09-1-26.52,2.38.09,1,.09,1,26.52-2.38-.09-1ZM1584.23,304.92l-.09-1c-11.41,1.02-19.34,2.82-24.43,5.83-2.57,1.52-4.45,3.36-5.67,5.59-1.22,2.22-1.75,4.75-1.75,7.6h2c0-2.59.48-4.78,1.5-6.64,1.02-1.86,2.61-3.46,4.93-4.83,4.68-2.77,12.23-4.54,23.6-5.56l-.09-1ZM1553.29,322.94h-1c0,6.34,1.94,11.18,6.12,14.39,4.13,3.17,10.26,4.63,18.34,4.63v-2c-7.91,0-13.51-1.43-17.12-4.21-3.55-2.73-5.34-6.9-5.34-12.81h-1ZM1748.26,375.3v1h.88l.11-.88-.99-.12ZM1698.96,375.3h-1v1h1v-1ZM1698.96,118.94v-1h-1v1h1ZM1751.32,118.94h1v-1h-1v1ZM1751.32,225.02h-1v3.3l1.83-2.75-.83-.56ZM1750.98,353.54l.86-.51-1.49-2.54-.36,2.92.99.12ZM1748.26,375.3v-1h-49.3v2h49.3v-1ZM1698.96,375.3h1V118.94h-2v256.36h1ZM1698.96,118.94v1h52.36v-2h-52.36v1ZM1751.32,118.94h-1v106.08h2v-106.08h-1ZM1751.32,225.02l.83.56c9.96-14.94,32.03-25.06,56.29-25.06v-2c-24.7,0-47.51,10.29-57.95,25.95l.83.55ZM1808.44,199.52v1c23.52,0,42.7,9.15,56.01,25.1,13.33,15.97,20.85,38.85,20.85,66.38h2c0-27.88-7.61-51.25-21.31-67.66-13.72-16.43-33.47-25.82-57.55-25.82v1ZM1886.3,292h-1c0,26.14-8.34,47.81-22.59,62.94-14.25,15.12-34.46,23.78-58.35,23.78v2c24.39,0,45.15-8.85,59.8-24.41,14.65-15.55,23.14-37.74,23.14-64.31h-1ZM1804.36,379.72v-1c-23.54,0-43.56-10.42-52.52-25.69l-.86.51-.86.51c9.4,16.02,30.18,26.67,54.24,26.67v-1ZM1750.98,353.54l-.99-.12-2.72,21.76.99.12.99.12,2.72-21.76-.99-.12ZM1751.66,289.28h-1c0,12.98,4.33,23.87,11.85,31.51,7.52,7.65,18.15,11.99,30.63,11.99v-2c-12,0-22.1-4.16-29.21-11.39-7.1-7.23-11.27-17.59-11.27-30.11h-1ZM1793.14,331.78v1c12.65,0,23.04-4.43,30.27-12.13,7.21-7.7,11.19-18.58,11.19-31.37h-2c0,12.37-3.84,22.74-10.65,30-6.8,7.26-16.64,11.5-28.81,11.5v1ZM1833.6,289.28h1c0-12.79-3.98-23.67-11.19-31.37-7.23-7.7-17.62-12.13-30.27-12.13v2c12.17,0,22.01,4.24,28.81,11.5,6.81,7.26,10.65,17.63,10.65,30h1ZM1793.14,246.78v-1c-12.48,0-23.11,4.34-30.63,11.99-7.52,7.65-11.85,18.54-11.85,31.51h2c0-12.52,4.17-22.88,11.27-30.11,7.11-7.22,17.21-11.39,29.21-11.39v-1ZM1904.2,321.58v-1h-1v1h1ZM1953.84,321.58l1-.06-.05-.94h-.95v1ZM1987.84,312.74l-.21.98h0l.21-.98ZM1956.56,305.94l.21-.98h0l-.21.98ZM2048.02,257.32v1h1v-1h-1ZM1998.38,257.32h-1v1h1v-1ZM1977.64,268.2l-.22.98h.01s.21-.98.21-.98ZM2009.26,275l.22-.98h-.01s-.21.98-.21.98ZM1904.2,321.58v1h49.64v-2h-49.64v1ZM1953.84,321.58l-1,.06c.36,6.21,2.86,11.25,7.41,14.72,4.52,3.45,10.97,5.26,19.09,5.26v-2c-7.85,0-13.82-1.76-17.88-4.85-4.03-3.07-6.3-7.55-6.62-13.24l-1,.06ZM1979.34,340.62v1c8.25,0,14.43-1.46,18.57-4.16,4.2-2.74,6.23-6.71,6.23-11.46h-2c0,4.09-1.7,7.43-5.33,9.79-3.67,2.4-9.4,3.83-17.47,3.83v1ZM2003.14,326h1c0-2.75-.74-5.65-3.21-8.22-2.44-2.54-6.48-4.64-12.88-6.02l-.21.98-.21.98c6.19,1.34,9.8,3.32,11.86,5.45,2.03,2.11,2.65,4.47,2.65,6.83h1ZM1987.84,312.74l.21-.98-31.28-6.8-.21.98-.21.98,31.28,6.8.21-.98ZM1956.56,305.94l.21-.98c-15.56-3.38-26.98-8.43-34.51-16.21-7.51-7.75-11.28-18.35-11.28-33.13h-2c0,15.14,3.88,26.3,11.84,34.53,7.94,8.2,19.81,13.35,35.53,16.77l.21-.98ZM1909.98,255.62h1c0-17.36,7.41-31.01,19.83-40.34,12.45-9.36,29.98-14.42,50.23-14.42v-2c-20.55,0-38.55,5.14-51.43,14.82-12.91,9.71-20.63,23.94-20.63,41.94h1ZM1981.04,199.86v1c19.53,0,36.03,5.72,47.63,15.61,11.59,9.88,18.35,23.96,18.35,40.85h2c0-17.46-7.01-32.1-19.05-42.37-12.03-10.25-29.02-16.09-48.93-16.09v1ZM2048.02,257.32v-1h-49.64v2h49.64v-1ZM1998.38,257.32h1c0-5.99-1.85-11.1-5.43-14.73-3.58-3.63-8.79-5.65-15.29-5.65v2c6.08,0,10.73,1.89,13.87,5.06,3.13,3.18,4.85,7.75,4.85,13.32h1ZM1978.66,237.94v-1c-6.11,0-11.2,1.57-14.77,4.43-3.61,2.87-5.61,6.99-5.61,11.87h2c0-4.29,1.74-7.83,4.85-10.31,3.14-2.5,7.74-3.99,13.53-3.99v-1ZM1959.28,253.24h-1c0,4.24,1.78,7.58,5.1,10.18,3.28,2.56,8.04,4.38,14.04,5.75l.22-.98.22-.98c-5.89-1.35-10.32-3.09-13.25-5.38-2.88-2.25-4.33-5.03-4.33-8.6h-1ZM1977.64,268.2l-.21.98,31.62,6.8.21-.98.21-.98-31.62-6.8-.21.98ZM2009.26,275l-.21.98c13.85,3.04,24.43,7.74,31.54,14.94,7.09,7.17,10.85,16.92,10.85,30.32h2c0-13.8-3.89-24.11-11.42-31.73-7.51-7.59-18.52-12.41-32.54-15.49l-.22.98ZM2052.44,321.24h-1c0,17.87-7.58,32.2-20.6,42.09-13.04,9.91-31.59,15.39-53.54,15.39v2c22.26,0,41.27-5.56,54.75-15.8,13.51-10.26,21.39-25.17,21.39-43.68h-1ZM1977.3,379.72v-1c-22.27,0-40.3-5.9-52.75-15.97-12.43-10.05-19.35-24.3-19.35-41.17h-2c0,17.47,7.19,32.29,20.09,42.73,12.89,10.42,31.4,16.41,54.01,16.41v-1ZM2080.48,417.8h-1v1h1v-1ZM2080.48,380.74v-1h-1v1h1ZM2230.42,380.74h1v-1h-1v1ZM2230.42,417.8v1h1v-1h-1ZM2080.48,417.8h1v-37.06h-2v37.06h1ZM2080.48,380.74v1h149.94v-2h-149.94v1ZM2230.42,380.74h-1v37.06h2v-37.06h-1ZM2230.42,417.8v-1h-149.94v2h149.94v-1Z"/>
    </g>
  </g>
</svg>